<?xml version="1.0" encoding="utf-8"?>
<!-- Generator: Adobe Illustrator 25.2.0, SVG Export Plug-In . SVG Version: 6.00 Build 0)  -->
<svg version="1.1" id="Layer_1" xmlns="http://www.w3.org/2000/svg" xmlns:xlink="http://www.w3.org/1999/xlink" x="0px" y="0px"
	 viewBox="0 0 1200 1200" style="enable-background:new 0 0 1200 1200;" xml:space="preserve">
<style type="text/css">
	.st0{fill:#A36D99;}
	.st1{fill:#C880B7;}
	.st2{fill:#1EAF93;}
	.st3{fill:#47DDB6;}
	.st4{fill:#3A3A3A;}
	.st5{fill:#ED8A28;}
	.st6{fill:#612DD3;}
	.st7{fill:#326273;}
	.st8{fill:#5C9EAD;}
	.st9{fill:#70486A;}
</style>
<g>
	<g>
		<g>
			<path class="st5" d="M884.25,802.65c-5.55,40.2-14.2,79.46-34.71,115.18c-3.39,5.91-5.87,12.32-7.24,19.04
				c-1.97,9.66,2.47,13.66,11.76,10.51c9.2-3.13,17.09-8.69,24.61-14.66c31.19-24.77,58.45-53.44,82.97-84.73
				c28.19-35.99,51.54-74.75,65.42-118.6c17.23-54.45,17.41-109.88,7.17-165.45c-27.2-147.65-138.81-265.27-284.77-302.57
				c-69.52-17.76-136.53-10.61-202.47,15.13c-43.49,16.97-84.16,39.12-121.82,66.73c-9.17,6.72-17.93,13.99-24.73,23.26
				c-2.4,3.27-5.06,7.01-3.12,11.11c2.13,4.52,6.96,4.51,11.28,4.47c6.33-0.06,12.61-0.91,18.69-2.62
				c47.3-13.28,95.02-10.92,142.61-2.87c51.1,8.65,98.88,26.9,141.89,55.96c106.49,71.97,165.2,172.1,174.7,300.59
				C888.18,756.34,887.13,779.53,884.25,802.65z"/>
		</g>
	</g>
	<path class="st6" d="M514.56,594.17c0,0,42.51-117.56,102.78-186.05c60.27-68.49,176.36-155.71,285.09-68.73
		c24.99,19.99,53.59,51.32,73.03,80.98c13.62,20.79,27.15,44.5,36.67,67.52c8.25,19.96,17.49,46.24,20.94,70.09
		c-10.33-8.82-19.98-18.58-31.31-26.46c-22.69-15.76-48.72-26.63-75.98-31.23c-39.49-6.66-79.83,0.27-116.64,15.33
		c-1.37,0.56-2.73,1.13-4.08,1.71c0,0-76.67,34.36-135.72,185.97c0,0-31.47,86.53-47.42,138.77
		c-15.94,52.24-31.58,66.66-48.55,74.26S441.77,648.61,514.56,594.17z"/>
	<path class="st5" d="M512.04,586.2c0,0,62.37,90.11,73.26,205.24c0,0,11.32,92.31,2.04,115.16
		c-9.29,22.85-122.78,62.22-148.52-41.35s-43.43-226.26-80.8-202.92C320.64,685.68,372.18,530.78,512.04,586.2z"/>
	<path class="st6" d="M514.56,590.26c0,0-57.09-118.25-154.08-129.37s-147.82,114.25-158.6,150.5s-46.45,163.37-42.73,220.55
		c3.72,57.18,30.14,95.72,97.09,96.62c66.96,0.9,66.59-95.89,66.59-95.89s2.87-125.11,33.23-167.6
		C386.43,622.58,409.51,577.31,514.56,590.26z"/>
</g>
</svg>
